<?xml version="1.0" encoding="UTF-8" standalone="no"?>
<!-- Created with Inkscape (http://www.inkscape.org/) -->

<svg
   width="42.129951mm"
   height="33.330719mm"
   viewBox="0 0 42.129951 33.330719"
   version="1.1"
   id="svg1"
   xmlns="http://www.w3.org/2000/svg"
   xmlns:svg="http://www.w3.org/2000/svg">
  <defs
     id="defs1" />
  <g
     id="layer1"
     transform="translate(-87.54022,-187.18255)">
    <rect
       style="fill:#ed8989;fill-opacity:1;stroke:none;stroke-width:0.705556;stroke-linecap:round;stroke-linejoin:round;stroke-opacity:1"
       id="rect29-9-6"
       width="42.129959"
       height="33.330719"
       x="87.540222"
       y="187.18254"
       ry="3.883625" />
    <path
       style="font-size:7.7611px;line-height:0;font-family:Asap;-inkscape-font-specification:'Asap, Normal';text-align:center;letter-spacing:0px;word-spacing:0px;text-orientation:upright;text-anchor:middle;fill:#fefafa;fill-opacity:1;stroke-width:0.705555;stroke-linecap:round;stroke-linejoin:round"
       d="m 90.665715,198.67583 c -0.492127,0.12714 -1.631414,-1.33668 -0.871974,-1.92663 0.436871,0.93354 1.651935,1.34753 1.584907,-0.45385 -0.184189,-1.42535 -1.079143,-1.29548 -1.486919,-2.22228 -0.589172,-1.15889 -0.294255,-3.46326 0.494967,-3.77784 0.418858,-0.16671 1.492602,-0.32299 1.430298,0.93119 -0.25821,1.22275 -1.096707,-0.77615 -1.500118,0.48951 -0.45721,1.80689 0.94791,1.8489 1.383826,2.91224 0.71734,1.31744 0.360852,3.75304 -0.496259,4.01309 -0.174542,0.079 -0.358164,0.0837 -0.538728,0.0345 z m 4.553055,0.97573 c -0.898806,-0.0744 -1.583273,-1.79104 -1.459956,-3.33612 0.0135,-1.94211 -0.02056,-3.90001 0.02227,-5.83946 0.432843,-0.65414 0.926619,0.0733 0.758581,1.03894 0.0066,1.81419 -0.02122,3.62574 0.0085,5.43953 0.148569,1.76453 1.503901,1.85297 2.020986,0.80137 0.309867,-0.48339 0.107819,-1.38664 0.166827,-2.07847 0.01651,-1.72115 -0.02297,-3.45837 0.02846,-5.1755 0.513605,-0.71231 1.099947,0.0807 0.899407,1.13345 0.02273,2.59365 -0.0754,5.17787 0.0639,7.78298 0.129216,1.38492 -1.202995,0.51181 -0.933518,-0.726 -0.407295,0.71777 -0.990138,1.11651 -1.575662,0.95923 z m 5.27368,5.40376 c -0.721787,-0.15724 -0.41367,-1.38123 -0.47723,-2.10353 -0.0161,-3.73927 0.0696,-7.47282 -0.0256,-11.22376 -0.566506,-1.5812 1.25189,-1.96853 1.02837,-0.17886 1.09156,-1.85917 3.60749,-1.95113 4.48705,0.74808 0.83289,2.76534 0.81292,6.2739 -0.40877,8.47296 -1.01085,1.78714 -3.01961,0.91461 -3.99521,-0.86335 -0.0236,1.69507 0.0307,3.42744 -0.0412,5.09284 -0.12515,0.25618 -0.37405,0.12113 -0.56755,0.0555 z m 2.39804,-4.97838 c 1.42924,0.30597 1.81288,-2.22116 1.78325,-3.99259 0.10228,-1.83641 -0.48213,-4.3323 -1.91426,-4.30584 -0.86435,-0.0241 -1.87506,0.82466 -1.6444,2.29557 l -0.01,4.17699 c 0.44136,0.8702 1.05784,1.66065 1.7854,1.82587 z m 10.08224,4.12723 c -1.99601,-0.38263 -4.05689,-2.27079 -4.34894,-4.86722 -0.4406,-3.01302 -0.30636,-6.98986 2.02779,-8.52127 2.03033,-1.30139 5.48202,-0.68802 6.40046,2.69471 0.43443,1.57074 1.44359,5.63155 -0.92066,5.08218 l -6.10994,-0.92813 c -0.2392,2.40491 1.46846,4.82695 3.49372,4.76644 1.23882,0.64673 3.88365,-1.89153 3.62999,1.22219 -1.13495,1.01905 -2.80467,0.88141 -4.17242,0.5511 z m -2.94364,-8.31664 5.50395,0.6374 c 0.36738,-2.57273 -1.58933,-5.16555 -3.60671,-4.34462 -1.33763,0.3652 -1.90338,2.13166 -1.89724,3.70722 z m 10.71952,10.69794 c -1.69062,-0.28061 -0.9945,-2.12281 -1.12743,-3.23201 -0.0191,-4.15625 0.20775,-8.32919 -0.1543,-12.47436 1.32676,-1.24109 2.78984,-0.009 2.60959,1.69474 0.79353,-2.22263 7.01459,-4.00851 5.55344,0.10831 -1.47834,0.91952 -5.57557,-0.42213 -5.42201,2.83613 l -0.0797,10.74228 c -0.0466,0.68263 -0.91715,0.44527 -1.37981,0.32489 z"
       id="text29-3-6"
       aria-label="super" />
    <path
       style="font-size:7.7611px;line-height:0;font-family:Asap;-inkscape-font-specification:'Asap, Normal';text-align:center;letter-spacing:0px;word-spacing:0px;text-orientation:upright;text-anchor:middle;fill:#fefafa;fill-opacity:1;stroke-width:0.705556;stroke-linecap:round;stroke-linejoin:round"
       d="m 95.52221,135.71202 c -2.377202,0.26963 -9.692221,-1.42473 -5.055983,-3.37366 2.541687,1.41362 7.145717,2.24045 8.259135,0.005 0.526641,-2.5511 -4.06992,-3.0491 -6.481791,-4.47474 -4.404845,-2.24141 -3.561045,-7.1885 1.045515,-7.10144 2.537565,0.0199 5.846862,0.81912 7.390004,2.55388 -0.43542,2.8148 -4.748222,-1.98008 -6.949596,-0.0712 -2.56391,2.79444 4.059617,3.85034 5.953223,5.44695 2.775293,1.86178 2.128513,5.49306 -0.971972,6.49862 -0.945679,0.3593 -2.050404,0.51956 -3.188535,0.51675 z m 13.07257,-0.0546 c -2.08011,0.10439 -4.71356,-0.97662 -5.30163,-3.28048 -0.7686,-2.84411 -0.74962,-6.49314 2.03736,-7.72138 1.92152,-0.66947 4.36014,-0.025 5.98861,1.31588 0.78335,1.27688 -0.74326,1.42056 -1.5478,0.53266 -1.97485,-1.15571 -4.52281,-0.36142 -4.52328,1.95804 -0.18876,1.83123 -0.25406,4.42363 1.88869,5.40623 1.55487,1.09244 3.39743,-0.67626 4.4141,0.0589 0.65584,1.41234 -2.02922,1.6514 -2.95605,1.73015 z m 7.47446,0.0141 c -1.50899,0 -3.0563,-1.37705 -2.68485,-3.22593 -2.5e-4,-1.44516 1.1507,-2.29282 2.28331,-2.27788 0.77426,-0.36114 2.28403,0.51627 2.59832,-0.1492 0.14751,-0.94044 -0.43078,-2.02448 -1.32169,-2.10549 -0.96948,-0.64836 -2.30967,0.80589 -2.97183,-0.42558 0.032,-1.57474 2.35192,-0.88312 3.3374,-0.66561 1.14563,0.32386 2.16734,1.69977 2.03676,3.0935 0.0174,1.80711 -0.0589,3.62531 0.10315,5.41631 -0.56987,0.65002 -1.16578,0.01 -1.10605,-0.86292 -0.53531,0.75306 -1.37483,1.2028 -2.27446,1.2028 z m 0.0587,-1.25221 c 0.82047,-0.0233 2.20435,-0.40761 2.13804,-1.55808 v -1.38197 c -1.02867,0.009 -2.68252,-0.60602 -3.34045,0.76134 -0.32027,1.00144 0.14104,2.26667 1.20241,2.17871 z m 7.08935,1.2646 c -0.87013,0.14226 -1.36574,-1.13732 -1.24758,-2.22163 l -1e-5,-8.63331 c 0.20656,-0.57333 1.11905,0.0679 0.90446,0.78116 0.003,2.80314 -0.008,5.60389 0.007,8.40747 0.003,1.28306 1.41822,-0.1376 1.07189,1.32948 -0.18768,0.26325 -0.47567,0.33683 -0.73516,0.33683 z m 3.64358,0.007 c -0.75579,0.0597 -1.67638,-0.5689 -1.87585,-1.90408 -0.25299,-1.62246 -0.25434,-3.7176 0.68758,-4.59403 0.83863,-0.7007 2.20082,-0.12156 2.51072,1.51107 0.086,0.64467 0.4101,2.06581 -0.15175,2.19119 l -2.40533,-0.27061 c -0.0861,1.21729 0.57285,2.35563 1.34245,2.16352 0.46687,0.22666 1.31393,-1.13877 1.25893,0.19956 -0.33535,0.55098 -0.87787,0.69016 -1.36675,0.70338 z m -1.23463,-4.01322 2.1018,0.30826 c 0.0849,-1.01859 -0.42032,-2.25047 -1.13828,-2.15657 -0.64147,-0.0555 -0.98193,0.91277 -0.96352,1.84831 z"
       id="text29-7-7-5"
       aria-label="scale"
       transform="translate(-0.50312073,83.297737)" />
  </g>
</svg>
